<svg id="Ebene_1" data-name="Ebene 1" xmlns="http://www.w3.org/2000/svg" width="16" height="16" viewBox="0 0 16 16">
  <defs>
    <style>
      .cls-1 {
        fill: #2f3137;
      }

      .cls-2 {
        fill: #fff;
      }

      .cls-3 {
        fill: #fbfbfb;
      }

      .cls-4 {
        fill: #21a3b8;
      }

      .cls-5 {
        fill: #103a5d;
      }
    </style>
  </defs>
  <g>
    <path class="cls-1" d="M12.79,6.46V10h.93V6.46ZM10,9.49h2.06V7.39H10Zm-7.76-3H1.34v7.31a.51.51,0,0,0,.51.52H9.32v-.73H2.26Zm6.36,4.07H6.56v2.1H8.62Zm0-3.14H6.56v2.1H8.62ZM5.13,10.53H3.07v2.1H5.13Zm0-3.14H3.07v2.1H5.13Z"/>
    <path class="cls-1" d="M13.72,4.37V6.46H1.34V4.37a.52.52,0,0,1,.51-.53h.62a.41.41,0,0,0,0,.11A1.13,1.13,0,1,0,4.71,4V3.84h5.63V4a1.13,1.13,0,1,0,2.25,0,.41.41,0,0,0,0-.11h.62A.52.52,0,0,1,13.72,4.37Z"/>
    <rect class="cls-1" x="3.07" y="1.34" width="0.92" height="3.24" rx="0.41"/>
    <rect class="cls-1" x="10.95" y="1.34" width="0.92" height="3.24" rx="0.41"/>
    <path class="cls-2" d="M10,7.39v2.1h2.06V7.39ZM6.56,12.63H8.62v-2.1H6.56Zm0-3.14H8.62V7.39H6.56ZM3.07,12.63H5.13v-2.1H3.07Zm0-3.14H5.13V7.39H3.07Z"/>
    <path class="cls-3" d="M2.26,6.46v7.1H9.32V10h3.47V6.46Zm2.87,6.17H3.07v-2.1H5.13Zm0-3.14H3.07V7.39H5.13Zm3.49,3.14H6.56v-2.1H8.62Zm0-3.14H6.56V7.39H8.62Zm3.46,0H10V7.39h2.06Z"/>
    <rect class="cls-4" x="3.07" y="7.39" width="2.06" height="2.1"/>
    <rect class="cls-4" x="6.56" y="7.39" width="2.06" height="2.1"/>
    <rect class="cls-4" x="10.02" y="7.39" width="2.06" height="2.1"/>
    <rect class="cls-4" x="3.07" y="10.53" width="2.06" height="2.1"/>
    <rect class="cls-4" x="6.56" y="10.53" width="2.06" height="2.1"/>
    <ellipse class="cls-4" cx="12.57" cy="13.27" rx="2.76" ry="2.82"/>
    <g>
      <ellipse class="cls-3" cx="12.57" cy="13.27" rx="1.56" ry="1.6"/>
      <rect class="cls-3" x="12.29" y="10.83" width="0.56" height="4.88"/>
      <rect class="cls-3" x="12.29" y="10.88" width="0.57" height="4.78" transform="translate(25.84 0.69) rotate(90)"/>
      <polygon class="cls-3" points="11.08 15.2 10.68 14.79 14.06 11.34 14.46 11.74 11.08 15.2"/>
      <polygon class="cls-3" points="14.46 14.8 14.06 15.2 10.68 11.75 11.08 11.34 14.46 14.8"/>
      <ellipse class="cls-5" cx="12.57" cy="13.27" rx="0.93" ry="0.95"/>
    </g>
  </g>
</svg>
