<svg id="Ebene_1" data-name="Ebene 1" xmlns="http://www.w3.org/2000/svg" width="16" height="16" viewBox="0 0 16 16">
  <defs>
    <style>
      .cls-1 {
        fill: #009bde;
        stroke: #103a5d;
        stroke-width: 0.5px;
      }

      .cls-1, .cls-2 {
        stroke-miterlimit: 10;
      }

      .cls-2 {
        fill: #ffcc23;
        stroke: #73ae73;
        stroke-width: 0.25px;
      }
    </style>
  </defs>
  <g>
    <path class="cls-1" d="M11.8,4.43v10a1,1,0,0,1-1,1H5.19a1,1,0,0,1-1-1V8.09A1.52,1.52,0,0,1,5.7,6.57H8a2.15,2.15,0,0,0,1-.27,2.16,2.16,0,1,0-3.2-1.91.9.9,0,0,1-.76.85.85.85,0,0,1-.94-.8V4.35A3.81,3.81,0,0,1,7.91.54,3.88,3.88,0,0,1,11.8,4.43Z"/>
    <path class="cls-2" d="M10.66,14.94l-.32.2a.51.51,0,0,1-.7-.16L7.22,11.19l-.14,0a1.23,1.23,0,0,1-.27,0A2,2,0,0,1,5,8.28l.87,1.36,1.61-1L6.56,7.18l.25,0a2,2,0,0,1,1.67,3.2.86.86,0,0,1-.07.1l2.4,3.78A.5.5,0,0,1,10.66,14.94Z"/>
  </g>
</svg>
