<svg id="Ebene_1" data-name="Ebene 1" xmlns="http://www.w3.org/2000/svg" width="16" height="16" viewBox="0 0 16 16">
  <defs>
    <style>
      .cls-1 {
        fill: none;
        stroke: #ffcc23;
        stroke-linecap: round;
        stroke-width: 0.75px;
      }

      .cls-1, .cls-2 {
        stroke-miterlimit: 10;
      }

      .cls-2 {
        fill: #009bde;
        stroke: #103a5d;
        stroke-width: 0.5px;
      }

      .cls-3 {
        fill: #103a5d;
      }
    </style>
  </defs>
  <g>
    <path class="cls-1" d="M11,2.69a1.78,1.78,0,0,0,2,1.82h1.32"/>
    <path class="cls-2" d="M14,5.41l-1.71-4A.59.59,0,0,0,11.74,1L7.35.9a.64.64,0,0,0-.51.26L.78,10.1a.61.61,0,0,0,.16.83l6.11,4.14a.58.58,0,0,0,.82-.16L13.93,6A.56.56,0,0,0,14,5.41ZM11.83,3.24a1,1,0,1,1-.27-1.4A1,1,0,0,1,11.83,3.24Z"/>
    <path class="cls-3" d="M8.79,7.52C8.06,7,7.61,7.1,7,7.84L8.88,9.12c.08.05.09.11,0,.18l-.29.24a.17.17,0,0,1-.23,0L6.6,8.36l-.16.24-.12.17L8,9.89c.08.06.09.12,0,.18l-.29.26a.18.18,0,0,1-.23,0L6,9.32c-.5.9-.45,1.37.31,1.88l1.25.85a.12.12,0,0,1,0,.19L7.06,13a.25.25,0,0,1-.36.11,7.33,7.33,0,0,1-1.26-.65c-1.81-1.23-2.05-2.22-.92-4.13l-.88-.59c-.08-.06-.09-.12,0-.18l.29-.25a.17.17,0,0,1,.23,0l.72.49L5,7.61l.16-.24L4.54,7c-.08,0-.08-.11,0-.18l.28-.25a.17.17,0,0,1,.24,0l.48.32c1.33-1.68,2.32-1.79,4.11-.58a10.51,10.51,0,0,1,1.28,1.07c.11.13.18.26,0,.38l-.74.6a.17.17,0,0,1-.22,0Z"/>
    <path class="cls-1" d="M14.34,4.51h1.32"/>
    <path class="cls-1" d="M15,9.77V2.69S14.85,1.38,13,1.38s-2,1.31-2,1.31"/>
  </g>
</svg>
