<svg id="Ebene_1" data-name="Ebene 1" xmlns="http://www.w3.org/2000/svg" width="16" height="16" viewBox="0 0 16 16">
  <defs>
    <style>
      .cls-1 {
        fill: #103a5d;
      }

      .cls-2 {
        fill: #6d7692;
      }

      .cls-3 {
        fill: #009bde;
      }
    </style>
  </defs>
  <circle class="cls-1" cx="8.05" cy="6.94" r="1.88"/>
  <circle class="cls-2" cx="12.09" cy="5.23" r="1.88"/>
  <circle class="cls-3" cx="4.12" cy="5.23" r="1.88"/>
  <path class="cls-1" d="M6.8,9.43H9.41a1.13,1.13,0,0,1,1.13,1.13V13a0,0,0,0,1,0,0H5.67a0,0,0,0,1,0,0V10.56A1.13,1.13,0,0,1,6.8,9.43Z"/>
  <path class="cls-2" d="M14.53,9V11.2H11.15v-1A1.34,1.34,0,0,0,9.81,8.88H9.66A1.35,1.35,0,0,1,11,7.66h2.18A1.34,1.34,0,0,1,14.53,9Z"/>
  <path class="cls-3" d="M6.55,8.88H6.4a1.34,1.34,0,0,0-1.34,1.34v1H1.68V9A1.35,1.35,0,0,1,3,7.66H5.21A1.35,1.35,0,0,1,6.55,8.88Z"/>
  <polygon class="cls-1" points="1.43 4.43 0.09 4.43 0.09 -0.02 4.12 -0.02 4.12 1.33 1.43 1.33 1.43 4.43"/>
  <polygon class="cls-1" points="16.08 4.01 14.74 4.01 14.74 1.33 11.63 1.33 11.63 -0.02 16.08 -0.02 16.08 4.01"/>
  <polygon class="cls-1" points="16.08 16.19 12.05 16.19 12.05 14.84 14.73 14.84 14.73 11.73 16.08 11.73 16.08 16.19"/>
  <polygon class="cls-1" points="4.54 16.18 0.08 16.18 0.08 12.15 1.43 12.15 1.43 14.84 4.54 14.84 4.54 16.18"/>
</svg>
