<svg id="Ebene_1" data-name="Ebene 1" xmlns="http://www.w3.org/2000/svg" width="16" height="16" viewBox="0 0 16 16">
  <defs>
    <style>
      .cls-1 {
        fill: none;
        stroke: #e8867c;
        stroke-linecap: round;
        stroke-width: 0.75px;
      }

      .cls-1, .cls-2 {
        stroke-miterlimit: 10;
      }

      .cls-2 {
        fill: #ffcc23;
        stroke: #bf991a;
        stroke-width: 0.5px;
      }

      .cls-3 {
        fill: #4bb0ff;
      }
    </style>
  </defs>
  <path class="cls-1" d="M10.92,2.35A1.84,1.84,0,0,0,13,4.23h1.36"/>
  <path class="cls-2" d="M14,5.16,12.24,1a.6.6,0,0,0-.55-.37L7.16.51a.62.62,0,0,0-.52.27L.38,10a.61.61,0,0,0,.16.85l6.3,4.28A.61.61,0,0,0,7.69,15L14,5.74A.6.6,0,0,0,14,5.16ZM11.78,2.92a1,1,0,0,1-1.45.28,1,1,0,1,1,1.45-.28Z"/>
  <path class="cls-3" d="M8.64,7.33c-.76-.51-1.21-.42-1.85.34L8.73,9c.08.06.1.12,0,.19l-.3.25a.18.18,0,0,1-.24,0L6.38,8.2l-.17.25-.12.18L7.8,9.78c.08.06.09.12,0,.19l-.3.26a.18.18,0,0,1-.24,0l-1.54-1c-.52.92-.46,1.4.32,1.93L7.35,12a.12.12,0,0,1,0,.2L6.86,13a.27.27,0,0,1-.38.11,7.12,7.12,0,0,1-1.3-.67c-1.87-1.27-2.11-2.29-.94-4.25l-.92-.62c-.08-.06-.08-.12,0-.19l.3-.25a.18.18,0,0,1,.24,0l.74.5.12-.17.17-.25-.62-.42c-.08-.06-.09-.12,0-.19l.3-.26a.18.18,0,0,1,.24,0l.5.34C6.65,4.9,7.68,4.78,9.52,6a10.24,10.24,0,0,1,1.32,1.1c.11.14.18.27,0,.39l-.76.62c-.09.06-.15.08-.23,0Z"/>
  <path class="cls-1" d="M14.37,4.23h1.36"/>
  <path class="cls-1" d="M15,9.66V2.35S14.89,1,13,1s-2.09,1.35-2.09,1.35"/>
</svg>
