<svg id="Ebene_1" data-name="Ebene 1" xmlns="http://www.w3.org/2000/svg" width="16" height="16" viewBox="0 0 16 16">
  <defs>
    <style>
      .cls-1 {
        fill: #e8867c;
        stroke: #ae655d;
        stroke-width: 0.5px;
      }

      .cls-1, .cls-2 {
        stroke-miterlimit: 10;
      }

      .cls-2 {
        fill: #9ae89a;
        stroke: #73ae73;
        stroke-width: 0.25px;
      }
    </style>
  </defs>
  <path class="cls-1" d="M11.7,4.42v10a1,1,0,0,1-1,1H5a1,1,0,0,1-1-1V8.11A1.54,1.54,0,0,1,5.56,6.57H7.91a2.26,2.26,0,0,0,1-.26A2.18,2.18,0,1,0,5.73,4.38.92.92,0,0,1,5,5.24a.85.85,0,0,1-1-.81V4.34A3.85,3.85,0,0,1,7.79.5,3.9,3.9,0,0,1,11.7,4.42Z"/>
  <path class="cls-2" d="M10.56,15l-.32.21a.52.52,0,0,1-.71-.16L7.09,11.23l-.14,0a1.23,1.23,0,0,1-.27,0,2,2,0,0,1-2-2,1.9,1.9,0,0,1,.23-.92l.87,1.37,1.62-1L6.43,7.19l.25,0A2,2,0,0,1,8.73,9.22a2.09,2.09,0,0,1-.37,1.18.86.86,0,0,0-.07.1l2.42,3.8A.5.5,0,0,1,10.56,15Z"/>
</svg>
