<svg id="Ebene_1" data-name="Ebene 1" xmlns="http://www.w3.org/2000/svg" width="16" height="16" viewBox="0 0 16 16">
  <defs>
    <style>
      .cls-1 {
        fill: #103a5d;
        stroke: #6d7692;
        stroke-miterlimit: 10;
        stroke-width: 0.5px;
      }

      .cls-2 {
        fill: #fbfbfb;
      }

      .cls-3 {
        fill: #ffcc23;
      }
    </style>
  </defs>
  <path class="cls-1" d="M14.13,8.18a1.54,1.54,0,0,0,1.55,1.55V12a1,1,0,0,1-1,1H1.29a1,1,0,0,1-1-1V9.73a1.55,1.55,0,1,0,0-3.1V4.35a1,1,0,0,1,1-1H14.64a1,1,0,0,1,1,1V6.63A1.54,1.54,0,0,0,14.13,8.18Z"/>
  <circle class="cls-2" cx="11.89" cy="8.18" r="0.62"/>
  <circle class="cls-2" cx="11.89" cy="6.21" r="0.62"/>
  <circle class="cls-2" cx="11.89" cy="4.35" r="0.62"/>
  <circle class="cls-2" cx="11.89" cy="12.01" r="0.62"/>
  <circle class="cls-2" cx="11.89" cy="10.04" r="0.62"/>
  <rect class="cls-3" x="3.92" y="7.35" width="6" height="0.62"/>
  <rect class="cls-3" x="3.92" y="8.59" width="3.93" height="0.62"/>
  <rect class="cls-3" x="3.92" y="9.83" width="6" height="0.62"/>
  <rect class="cls-2" x="3.92" y="5.8" width="0.83" height="0.83"/>
  <rect class="cls-2" x="9.09" y="5.8" width="0.83" height="0.83"/>
  <rect class="cls-2" x="6.51" y="5.8" width="0.83" height="0.83"/>
  <rect class="cls-2" x="5.16" y="5.8" width="0.83" height="0.83"/>
  <rect class="cls-2" x="7.85" y="5.8" width="0.83" height="0.83"/>
</svg>
