<svg id="Ebene_1" data-name="Ebene 1" xmlns="http://www.w3.org/2000/svg" width="16" height="16" viewBox="0 0 16 16"><defs><style>.cls-1{fill:#bf2c38;stroke-linecap:round;stroke-linejoin:round;}.cls-1,.cls-2,.cls-3{stroke:#000;stroke-width:0.25px;}.cls-2{fill:#d98088;}.cls-2,.cls-3{stroke-miterlimit:10;}.cls-3{fill:#fff;}</style></defs><title>trackingconfig</title><path class="cls-1" d="M7.89,15.09c-3.39,0-7-.73-7-2.33s3.65-2.34,7-2.34,7,.73,7,2.34S11.28,15.09,7.89,15.09Zm0-3.67c-3.93,0-6,.95-6,1.34s2.11,1.33,6,1.33,6-.95,6-1.33S11.81,11.42,7.89,11.42Z"/><path class="cls-2" d="M12.1,4.36a4.17,4.17,0,0,1-.43,1.86l0,.07-3.74,7.4h0V.14a4.27,4.27,0,0,1,2.23.64A4.21,4.21,0,0,1,12.1,4.36Z"/><path class="cls-1" d="M7.89.14V13.68L4.27,6.52,4,6A4.2,4.2,0,0,1,5.66.78,4.15,4.15,0,0,1,7.89.14Z"/><circle class="cls-3" cx="7.9" cy="4.24" r="2.19"/></svg>