<svg id="Ebene_1" data-name="Ebene 1" xmlns="http://www.w3.org/2000/svg" width="16" height="16" viewBox="0 0 16 16">
  <defs>
    <style>
      .cls-1 {
        fill: #103a5d;
      }

      .cls-2 {
        fill: #fff;
      }
    </style>
  </defs>
  <rect class="cls-1" x="7.44" y="11.97" width="1.28" height="3.51"/>
  <rect class="cls-1" x="7.66" y="11.33" width="0.96" height="8.19" rx="0.29" transform="translate(23.56 7.29) rotate(90)"/>
  <path class="cls-1" d="M8.08,12.92A5,5,0,0,1,3.08,8,.64.64,0,0,1,4.36,8a3.68,3.68,0,0,0,3.72,3.62A3.68,3.68,0,0,0,11.81,8a.64.64,0,1,1,1.27,0A5,5,0,0,1,8.08,12.92Z"/>
  <path class="cls-1" d="M10.85,3.08V7.34a2.82,2.82,0,0,1-5.64,0V3.08a2.78,2.78,0,0,1,.06-.58,2.82,2.82,0,0,1,5.52,0A2.78,2.78,0,0,1,10.85,3.08Z"/>
  <path class="cls-2" d="M10.85,3.08v.16H5.21V3.08a2.78,2.78,0,0,1,.06-.58h5.52A2.78,2.78,0,0,1,10.85,3.08Z"/>
  <rect class="cls-2" x="5.21" y="4.52" width="5.64" height="0.74"/>
  <rect class="cls-2" x="5.21" y="6.54" width="5.64" height="0.74"/>
</svg>
