<svg id="Ebene_1" data-name="Ebene 1" xmlns="http://www.w3.org/2000/svg" width="16" height="16" viewBox="0 0 16 16">
  <defs>
    <style>
      .cls-1 {
        fill: #2f3137;
      }

      .cls-2 {
        fill: #fbfbfb;
      }

      .cls-3 {
        fill: #21a3b8;
      }
    </style>
  </defs>
  <g>
    <path class="cls-1" d="M14.85,6.81v7.81a.56.56,0,0,1-.56.56H1.9a.56.56,0,0,1-.56-.56V6.81Z"/>
    <path class="cls-1" d="M14.85,4.57V6.81H1.34V4.57A.56.56,0,0,1,1.9,4h.67v.12A1.23,1.23,0,0,0,5,4.13V4h6.15a.49.49,0,0,0,0,.12,1.23,1.23,0,0,0,2.46,0,.49.49,0,0,0,0-.12h.68A.56.56,0,0,1,14.85,4.57Z"/>
    <rect class="cls-1" x="3.24" y="1.34" width="1" height="3.46" rx="0.35"/>
    <rect class="cls-1" x="11.83" y="1.34" width="1" height="3.46" rx="0.35"/>
    <rect class="cls-2" x="2.34" y="6.81" width="11.5" height="7.59"/>
    <rect class="cls-3" x="3.24" y="7.81" width="2.24" height="2.24"/>
    <rect class="cls-3" x="7.04" y="7.81" width="2.24" height="2.24"/>
    <rect class="cls-3" x="10.82" y="7.81" width="2.24" height="2.24"/>
    <rect class="cls-3" x="3.24" y="11.15" width="2.24" height="2.24"/>
    <rect class="cls-3" x="7.04" y="11.15" width="2.24" height="2.24"/>
    <rect class="cls-3" x="10.82" y="11.15" width="2.24" height="2.24"/>
  </g>
</svg>
